<svg style="position: absolute" viewBox="0 0 200 200" xmlns="http://www.w3.org/2000/svg">
    <path fill="#FF0066" d="M16.8,-31.7C23,-25.5,30,-23.5,36.2,-18.9C42.4,-14.3,47.7,-7.1,45.5,-1.3C43.3,4.6,33.6,9.2,29.9,18.1C26.2,26.9,28.4,39.9,24.4,48.3C20.4,56.8,10.2,60.6,-1.9,63.9C-14.1,67.3,-28.2,70.3,-37.5,64.9C-46.9,59.6,-51.5,46,-51.5,33.8C-51.6,21.6,-47.1,10.8,-41.4,3.3C-35.7,-4.2,-28.8,-8.4,-26.5,-16.8C-24.3,-25.2,-26.7,-37.8,-23,-45.4C-19.4,-53.1,-9.7,-55.9,-2.2,-52.1C5.3,-48.3,10.6,-37.9,16.8,-31.7Z" transform="translate(100 100)" />
</svg>